<svg height="370" width="370" xmlns="http://www.w3.org/2000/svg" xmlns:xlink="http://www.w3.org/1999/xlink"><linearGradient id="a"><stop offset="0" stop-color="#a2781b"/><stop offset=".05" stop-color="#a2781b"/><stop offset=".16" stop-color="#8c641b"/><stop offset=".4" stop-color="#e8b840"/><stop offset=".42" stop-color="#eebe43"/><stop offset=".65" stop-color="#fffad4"/><stop offset=".68" stop-color="#f4ecc3"/><stop offset=".74" stop-color="#d8c896"/><stop offset=".82" stop-color="#ac8e4e"/><stop offset=".87" stop-color="#8c641b"/><stop offset="1" stop-color="#c89415"/></linearGradient><linearGradient id="b" x1="-12.332%" x2="112.881%" xlink:href="#a" y1="49.891%" y2="49.891%"/><linearGradient id="c" x1=".248%" x2="100.197%" xlink:href="#a" y1="49.909%" y2="49.909%"/><linearGradient id="d" x1="-139.441%" x2="357.842%" xlink:href="#a" y1="50%" y2="50%"/><linearGradient id="e" x1="-256.616%" x2="240.774%" xlink:href="#a" y1="50%" y2="50%"/><linearGradient id="f" x1="-139.441%" x2="357.842%" xlink:href="#a" y1="49.992%" y2="49.992%"/><linearGradient id="g" x1="-1247.234%" x2="1170.493%" xlink:href="#a" y1="49.978%" y2="49.978%"/><linearGradient id="h" x1="-256.616%" x2="240.774%" xlink:href="#a" y1="49.992%" y2="49.992%"/><linearGradient id="i" x1="50.002%" x2="50.002%" xlink:href="#a" y1="112.138%" y2="-11.932%"/><linearGradient id="j" x1="50.091%" x2="50.091%" xlink:href="#a" y1="99.657%" y2=".328%"/><linearGradient id="k" x1="50%" x2="50%" xlink:href="#a" y1="352.227%" y2="-136.076%"/><linearGradient id="l" x1="49.992%" x2="49.992%" xlink:href="#a" y1="352.227%" y2="-136.076%"/><linearGradient id="m" x1="50%" x2="50%" xlink:href="#a" y1="236.884%" y2="-251.418%"/><linearGradient id="n" x1="49.947%" x2="49.947%" xlink:href="#a" y1="821.834%" y2="-1753.076%"/><linearGradient id="o" x1="49.992%" x2="49.992%" xlink:href="#a" y1="236.884%" y2="-251.418%"/><linearGradient id="p" x1="0%" x2="100%" xlink:href="#a" y1="49.999%" y2="49.999%"/><g fill="none"><path d="M185.533 331.626c-59.553 0-113.243-35.87-136.033-90.89-22.79-55.02-10.19-118.35 31.923-160.459 57.6-56.897 150.333-56.613 207.584.636 57.25 57.25 57.537 149.982.641 207.584a146.273 146.273 0 01-104.115 43.129zm0-282.558c-74.619 0-135.32 60.712-135.32 135.32s60.713 135.318 135.32 135.318 135.325-60.712 135.325-135.319S260.15 49.068 185.533 49.068z" fill="url(#b)"/><path d="M185.533 368.78c-74.579-.004-141.813-44.93-170.353-113.832C-13.36 186.047 2.413 106.738 55.145 54c72.119-71.378 188.355-71.078 260.105.671 71.75 71.75 72.049 187.986.67 260.105a183.216 183.216 0 01-130.387 54.006zm0-364.272C86.36 4.508 5.687 85.192 5.687 184.353c0 99.16 80.685 179.845 179.846 179.845 99.16 0 179.845-80.684 179.845-179.845S284.705 4.53 185.533 4.53z" fill="url(#c)"/><path d="M105.22 104.075v43.53h60.88v17.349h-60.88v13.11h73.99v-73.989zm13.111 30.442v-17.331H166.1v17.331z" fill="url(#d)"/><path d="M191.873 104.075v43.53h60.861v17.349h-60.86v13.11h73.97v-73.989zm13.11 30.442v-17.331h47.768v17.331z" fill="url(#e)"/><path d="M105.22 190.728v43.529h60.88v17.326h-60.88v13.11h73.99v-73.965zm13.111 30.441v-17.348H166.1v17.331z" fill="url(#f)"/><path d="M191.856 251.589h15.218v13.11h-15.218z" fill="url(#g)"/><path d="M191.873 190.728v43.529h60.861v17.326h-33.248v13.11h46.358v-73.965zm60.878 30.441h-47.768v-17.348h47.768z" fill="url(#h)"/><path d="M185.533 332.199c-59.785.004-113.685-36.008-136.563-91.242-22.878-55.234-10.227-118.811 32.052-161.08 37.338-37.339 91.76-51.92 142.764-38.254 51.005 13.667 90.844 53.506 104.51 104.51 13.668 51.005-.915 105.427-38.253 142.765a146.84 146.84 0 01-104.51 43.3zm0-294.472c-59.319.002-112.796 35.735-135.497 90.538-22.7 54.803-10.155 117.884 31.788 159.831 57.277 57.277 150.14 57.277 207.417 0 57.277-57.277 57.277-150.14 0-207.418a145.689 145.689 0 00-103.708-42.957zm0 282.558c-74.928 0-135.887-60.964-135.887-135.892S110.605 48.5 185.533 48.5s135.892 60.958 135.892 135.886S260.46 320.28 185.533 320.28zm0-270.644C111.229 49.635 50.78 110.084 50.78 184.387S111.23 319.14 185.533 319.14 320.29 258.691 320.29 184.387 259.836 49.635 185.533 49.635z" fill="url(#i)"/><path d="M185.533 369.348c-74.808-.005-142.249-45.07-170.877-114.183C-13.972 186.052 1.85 106.5 54.744 53.598c72.34-71.595 188.932-71.293 260.902.676 71.969 71.97 72.27 188.56.675 260.902a183.766 183.766 0 01-130.788 54.172zm0-368.776C111.2.608 44.204 45.398 15.76 114.072-12.685 182.745 3.02 261.79 55.557 314.374c72.171 69.47 186.674 68.378 257.507-2.456 70.833-70.833 71.925-185.335 2.456-257.506A182.65 182.65 0 00185.533.572zm0 364.273c-99.482 0-180.418-80.936-180.418-180.418S86.056 4.01 185.533 4.01c99.476 0 180.418 80.942 180.418 180.418s-80.93 180.384-180.418 180.384zm0-359.69C86.675 5.155 6.26 85.58 6.26 184.427c0 98.846 80.432 179.273 179.273 179.273 98.84 0 179.272-80.427 179.272-179.273 0-98.846-80.415-179.324-179.272-179.324z" fill="url(#j)"/><path d="M179.776 178.631h-75.122v-14.25h60.872v-16.186h-60.872V103.52h75.122zm-73.988-1.146h72.854v-72.843h-72.854v42.419h60.884v18.465h-60.884zm60.878-42.383h-48.902v-18.483h48.908zm-47.768-1.146h46.628v-16.203h-46.628z" fill="url(#k)"/><path d="M266.411 178.631h-75.11v-14.25h60.866v-16.186H191.3V103.52h75.111zm-73.965-1.134H265.3v-72.855h-72.854v42.419H253.3v18.465h-60.855zm60.878-42.384h-48.925v-18.494h48.902zm-47.768-1.146h46.634v-16.214h-46.657z" fill="url(#l)"/><path d="M179.776 265.266h-75.122v-14.244h60.872V234.83h-60.872v-44.675h75.122zm-73.988-1.146h72.854V191.3h-72.854v42.384h60.884v18.46h-60.884zm60.884-42.4h-48.908v-18.466h48.908zm-47.768-1.146h46.622v-16.186h-46.628z" fill="url(#m)"/><path d="M207.641 265.266h-16.34v-14.244h16.351zm-15.218-1.146h14.084v-11.964h-14.061z" fill="url(#n)"/><path d="M266.411 265.266H218.92v-14.244h33.22V234.83H191.3v-44.675h75.111zm-46.358-1.146H265.3V191.3h-72.854v42.384H253.3v18.46h-33.248zm33.248-42.412H204.4v-18.454h48.902zm-47.768-1.146h46.634v-16.174h-46.634z" fill="url(#o)"/><path d="M354.484 190.206c.069-1.936.092-3.877.098-5.819a155.48 155.48 0 00-.104-5.865l-8.969.31a149.823 149.823 0 00-.36-6.564l8.957-.67c-.149-1.936-.328-3.87-.538-5.802s-.46-3.874-.75-5.825l-8.884 1.288a152.942 152.942 0 00-1.077-6.483l8.815-1.656c-.355-1.907-.75-3.808-1.146-5.727-.395-1.919-.887-3.815-1.38-5.728l-8.689 2.291c-.572-2.119-1.145-4.227-1.787-6.329l8.592-2.617c-.57-1.856-1.169-3.704-1.799-5.544s-1.298-3.68-2.004-5.516l-8.397 3.202a178.17 178.17 0 00-2.474-6.089l8.247-3.55a144.08 144.08 0 00-2.4-5.316 213.49 213.49 0 00-2.606-5.258l-7.978 4.118c-1-1.947-2.045-3.873-3.133-5.779l7.8-4.444a152.864 152.864 0 00-2.966-5.012 181.944 181.944 0 00-3.167-4.943l-7.446 4.972a164.005 164.005 0 00-3.752-5.401l7.269-5.27c-1.146-1.573-2.312-3.125-3.5-4.656s-2.417-3.059-3.689-4.582l-6.873 5.762a156.808 156.808 0 00-4.318-4.96l6.65-6.037a144.759 144.759 0 00-4.01-4.244 236.108 236.108 0 00-4.164-4.13l-6.231 6.512a136.42 136.42 0 00-4.84-4.456l5.945-6.724c-1.449-1.289-2.932-2.549-4.427-3.786s-3.042-2.463-4.582-3.654l-5.476 7.125a159.89 159.89 0 00-5.292-3.9l5.155-7.337a183.914 183.914 0 00-4.817-3.277 151.546 151.546 0 00-4.966-3.127l-4.656 7.68a133.974 133.974 0 00-5.688-3.293l4.336-7.863c-1.7-.936-3.418-1.843-5.155-2.721s-3.492-1.74-5.264-2.583l-3.78 8.144a159.11 159.11 0 00-6.02-2.64l3.437-8.3c-1.79-.736-3.597-1.448-5.418-2.136s-3.666-1.334-5.533-1.941l-2.864 8.51a149.08 149.08 0 00-6.3-1.958l2.497-8.626a169.058 169.058 0 00-11.352-2.863l-1.89 8.78a164.526 164.526 0 00-6.455-1.254l1.53-8.85c-1.914-.326-3.832-.63-5.757-.887s-3.883-.504-5.83-.699l-.911 8.93a165.357 165.357 0 00-6.552-.533l.572-8.964c-1.941-.12-3.877-.206-5.819-.258a181.708 181.708 0 00-5.865-.057l.063 8.98c-2.196 0-4.385.06-6.57.178l-.429-8.97c-1.94.093-3.878.217-5.813.373-1.948.166-3.895.355-5.837.573l1.043 8.918c-2.177.252-4.348.573-6.513.893l-1.409-8.866c-1.918.304-3.831.636-5.727 1.008-1.896.372-3.832.785-5.728 1.22l2.016 8.752a155.091 155.091 0 00-6.374 1.61l-2.377-8.66c-1.875.515-3.739 1.063-5.59 1.643s-3.718 1.2-5.596 1.861l2.972 8.471a191.34 191.34 0 00-6.151 2.291l-3.328-8.345a171.478 171.478 0 00-10.705 4.702l3.918 8.134c-1.974.95-3.929 1.942-5.865 2.972l-4.221-7.92a172.594 172.594 0 00-5.098 2.829c-1.68.97-3.356 1.98-5.028 3.03l4.765 7.611a125.64 125.64 0 00-5.499 3.597l-5.074-7.411c-1.6 1.1-3.183 2.224-4.748 3.373a153.867 153.867 0 00-4.663 3.563l5.568 7.045a150.943 150.943 0 00-5.07 4.181l-5.853-6.833c-1.474 1.264-2.925 2.555-4.353 3.872s-2.843 2.667-4.244 4.05l6.3 6.391a137.181 137.181 0 00-4.582 4.714l-6.563-6.129a162.636 162.636 0 00-7.68 8.815l6.964 5.659a159.984 159.984 0 00-4.038 5.19l-7.194-5.379a507.877 507.877 0 00-3.437 4.731 90.319 90.319 0 00-3.264 4.874l7.549 4.869a147.357 147.357 0 00-3.437 5.595l-7.738-4.553a165.914 165.914 0 00-2.864 5.075 153.815 153.815 0 00-2.703 5.206l8.019 4.01a168.8 168.8 0 00-2.807 5.944l-8.196-3.665a153.455 153.455 0 00-2.291 5.355 175.162 175.162 0 00-2.114 5.476l8.431 3.092a135.578 135.578 0 00-2.136 6.215l-8.551-2.738a171.966 171.966 0 00-3.173 11.26l8.723 2.137a160.54 160.54 0 00-1.432 6.415l-8.803-1.776c-.384 1.907-.734 3.815-1.054 5.728s-.607 3.866-.854 5.807l8.901 1.146c-.264 2.18-.49 4.362-.682 6.547l-8.94-.79c-.172 1.93-.315 3.865-.418 5.807a180.805 180.805 0 00-.218 5.86l8.98.182c-.045 2.188-.045 4.38 0 6.576l-8.98.166c.042 1.943.114 3.883.218 5.819.103 1.936.242 3.887.418 5.854l8.946-.79c.195 2.183.433 4.362.716 6.534l-8.906 1.146c.252 1.924.538 3.849.853 5.762s.676 3.854 1.06 5.773l8.803-1.775c.435 2.15.913 4.288 1.432 6.414l-8.717 2.165c.458 1.887.952 3.765 1.483 5.636a124.209 124.209 0 001.718 5.62l8.551-2.744c.665 2.09 1.38 4.163 2.131 6.22l-8.43 3.093a187.733 187.733 0 002.101 5.435c.739 1.81 1.506 3.614 2.291 5.395l8.196-3.665c.894 2 1.83 3.98 2.807 5.94l-8.019 4.008c.867 1.734 1.762 3.452 2.686 5.155s1.88 3.406 2.864 5.11l7.744-4.554a174.414 174.414 0 003.436 5.601l-7.549 4.863a172.55 172.55 0 003.242 4.846 157.182 157.182 0 003.437 4.76l7.194-5.379a161.124 161.124 0 004.043 5.183l-6.964 5.67c1.225 1.501 2.48 2.99 3.751 4.451 1.272 1.46 2.6 2.927 3.935 4.359l6.558-6.129a177.648 177.648 0 004.582 4.708l-6.3 6.392a146.09 146.09 0 004.215 4.01 179.937 179.937 0 004.382 3.9l5.853-6.799a156.84 156.84 0 005.075 4.182l-5.561 7.056c1.527 1.203 3.07 2.38 4.627 3.534a150.426 150.426 0 004.783 3.396l5.074-7.411a167.903 167.903 0 005.499 3.602l-4.76 7.612a198.326 198.326 0 004.99 3.002c1.68.977 3.397 1.932 5.154 2.863l4.227-7.927a160.523 160.523 0 005.86 2.973l-3.896 8.093c1.753.844 3.519 1.655 5.298 2.434 1.793.785 3.597 1.547 5.413 2.291l3.322-8.345a139.5 139.5 0 006.157 2.291l-2.973 8.471a173.692 173.692 0 0011.163 3.488l2.377-8.66c2.112.577 4.237 1.113 6.375 1.61l-2.016 8.751c1.91.436 3.809.839 5.699 1.209 1.89.37 3.816.71 5.779 1.02l1.38-8.878c2.16.343 4.336.641 6.513.893l-1.043 8.924c1.93.223 3.866.412 5.796.573 1.93.16 3.9.286 5.86.378l.418-8.97c2.193.103 4.381.16 6.575.178l-.063 8.975c1.94 0 3.881-.02 5.825-.057 1.944-.039 3.897-.125 5.86-.258l-.573-8.964c2.187-.133 4.372-.313 6.552-.538l.916 8.935c1.932-.199 3.86-.43 5.785-.693 1.936-.27 3.872-.573 5.796-.9l-1.529-8.849c2.16-.378 4.313-.79 6.455-1.254l1.89 8.775a150.73 150.73 0 005.676-1.33c1.902-.474 3.786-.99 5.67-1.534l-2.503-8.62a177.02 177.02 0 006.3-1.965l2.865 8.512c1.844-.615 3.675-1.264 5.492-1.948s3.637-1.401 5.459-2.153l-3.437-8.294c2.024-.844 4.03-1.726 6.02-2.646l3.78 8.145a161.67 161.67 0 005.24-2.543c1.73-.879 3.46-1.795 5.19-2.75l-4.336-7.858a173.93 173.93 0 005.688-3.293l4.662 7.675a169.226 169.226 0 009.782-6.404l-5.154-7.337a171.594 171.594 0 005.292-3.9l5.47 7.12c1.527-1.18 3.054-2.39 4.582-3.626s3.014-2.507 4.462-3.81l-5.991-6.74a155.98 155.98 0 004.834-4.457l6.214 6.478c1.405-1.34 2.784-2.707 4.135-4.1s2.688-2.82 4.01-4.28l-6.65-6.03a165.85 165.85 0 004.318-4.96l6.873 5.762a184.26 184.26 0 003.66-4.537 175.41 175.41 0 003.523-4.685l-7.268-5.275a153.087 153.087 0 003.751-5.4l7.48 4.97c1.07-1.615 2.116-3.249 3.139-4.902s2.02-3.337 2.99-5.052l-7.79-4.422a165.83 165.83 0 003.133-5.779l7.979 4.119c.893-1.719 1.747-3.471 2.583-5.224s1.638-3.557 2.411-5.35l-8.247-3.55c.862-2.017 1.69-4.048 2.48-6.095l8.385 3.213c.69-1.813 1.353-3.64 1.987-5.48.636-1.85 1.237-3.718 1.81-5.585l-8.591-2.618a170.689 170.689 0 001.781-6.329l8.694 2.263c.485-1.887.942-3.775 1.37-5.665.427-1.89.809-3.8 1.145-5.727l-8.826-1.65c.4-2.153.76-4.317 1.076-6.49l8.895 1.244c.281-1.925.522-3.85.733-5.785a163.5 163.5 0 00.539-5.842l-8.935-.682a171.6 171.6 0 00.355-6.57zm-2.812 9.079a174.41 174.41 0 01-.75 6.838l-8.901-1.145a157.197 157.197 0 01-1.781 10.733l8.803 1.77a149.35 149.35 0 01-1.5 6.724l-8.718-2.136a155.457 155.457 0 01-2.955 10.47l8.55 2.737c-.349 1.1-.715 2.194-1.087 3.288a163.595 163.595 0 01-1.146 3.225l-8.431-3.087a158.473 158.473 0 01-4.095 10.074l8.196 3.666a156.549 156.549 0 01-2.944 6.226l-8.019-4.01a168.035 168.035 0 01-5.154 9.56l7.738 4.553c-.585.993-1.178 1.982-1.782 2.967-.572.968-1.208 1.936-1.827 2.892l-7.617-4.862a151.954 151.954 0 01-6.203 8.935l7.193 5.384c-.695.928-1.395 1.846-2.102 2.755-.698.899-1.414 1.792-2.13 2.68l-6.965-5.664a160.271 160.271 0 01-7.154 8.201l6.564 6.129a164.192 164.192 0 01-4.8 4.937l-6.3-6.392a154.424 154.424 0 01-8.018 7.371l5.853 6.81a89.99 89.99 0 01-2.652 2.229 136.5 136.5 0 01-2.663 2.147l-5.567-7.039a156.597 156.597 0 01-8.763 6.45l5.074 7.41a170.499 170.499 0 01-5.727 3.77l-4.76-7.607a176.812 176.812 0 01-9.416 5.447l4.198 7.904c-1.014.573-2.044 1.077-3.07 1.598s-2.044 1.02-3.07 1.518l-3.894-8.087a157.288 157.288 0 01-9.96 4.37l3.327 8.345c-1.077.424-2.155.84-3.236 1.249-1.065.4-2.142.79-3.213 1.145l-2.978-8.42a159.635 159.635 0 01-10.379 3.242l2.377 8.66c-1.111.304-2.234.573-3.35.883s-2.217.572-3.328.801l-2.016-8.746a158.323 158.323 0 01-10.682 2.074l1.409 8.866c-1.146.183-2.291.35-3.437.51-1.145.16-2.262.298-3.396.43l-1.037-8.918c-3.608.423-7.224.72-10.848.887l.458 8.953c-1.145.057-2.29.097-3.436.131s-2.291.046-3.437.058l-.063-8.981c-3.623.023-7.25-.075-10.882-.292l-.573 8.958c-1.145-.07-2.29-.15-3.436-.241s-2.282-.197-3.408-.315l.916-8.93a171.63 171.63 0 01-10.78-1.483l-1.557 8.85c-1.146-.2-2.281-.407-3.408-.625s-2.243-.447-3.35-.687l1.89-8.78a154.864 154.864 0 01-10.545-2.664l-2.497 8.626a166.12 166.12 0 01-3.322-.997c-1.088-.338-2.17-.693-3.253-1.054l2.863-8.51a147.5 147.5 0 01-10.189-3.821l-3.436 8.3a172.015 172.015 0 01-6.306-2.772l3.78-8.146a158.294 158.294 0 01-9.703-4.92l-4.335 7.87a709.455 709.455 0 01-3.019-1.718c-1.002-.573-1.964-1.146-2.944-1.718l4.657-7.675a156.48 156.48 0 01-9.101-5.957l-5.155 7.337c-.943-.664-1.88-1.338-2.812-2.022s-1.85-1.374-2.755-2.073l5.47-7.12a157.956 157.956 0 01-8.391-6.924l-5.951 6.73a247.13 247.13 0 01-2.572-2.32 139.664 139.664 0 01-2.492-2.348l6.215-6.478a158.935 158.935 0 01-7.59-7.795l-6.643 6.036a121.335 121.335 0 01-2.291-2.588c-.745-.871-1.49-1.719-2.222-2.6l6.873-5.763a156.668 156.668 0 01-6.684-8.59l-7.269 5.274a193.65 193.65 0 01-2.004-2.824 164.83 164.83 0 01-1.925-2.829l7.446-4.971a171.56 171.56 0 01-5.728-9.268l-7.8 4.445c-.573-1-1.135-2.009-1.684-3.024-.573-1.003-1.077-2.016-1.604-3.03l7.978-4.112a157.816 157.816 0 01-4.645-9.835l-8.247 3.551a153.05 153.05 0 01-2.595-6.38l8.385-3.208a153.096 153.096 0 01-3.528-10.31l-8.591 2.618a140.59 140.59 0 01-.98-3.322 160.92 160.92 0 01-.893-3.304l8.689-2.263a160.52 160.52 0 01-2.366-10.613l-8.826 1.65a257.71 257.71 0 01-.607-3.437 109.185 109.185 0 01-.521-3.38l8.883-1.288c-.52-3.585-.913-7.19-1.18-10.814l-8.906.728a148.22 148.22 0 01-.224-3.437 172.315 172.315 0 01-.149-3.436l8.97-.304a166.79 166.79 0 010-10.882l-8.975-.298a159.922 159.922 0 01.372-6.902l8.952.67c.267-3.616.663-7.22 1.186-10.813l-8.884-1.254c.168-1.146.344-2.292.527-3.437.184-1.146.375-2.27.573-3.374l8.85 1.656a153.52 153.52 0 012.37-10.613l-8.711-2.263c.292-1.145.572-2.234.91-3.345.338-1.11.63-2.193.963-3.287l8.591 2.617a158.513 158.513 0 013.534-10.31l-8.38-3.155a156.967 156.967 0 012.595-6.38l8.248 3.55a150.983 150.983 0 014.65-9.834l-7.984-4.118a199.097 199.097 0 011.621-3.059c.573-1.002 1.1-2.004 1.661-2.995l7.801 4.445a154.2 154.2 0 015.728-9.268l-7.498-4.988c.636-.963 1.289-1.92 1.948-2.864.658-.945 1.311-1.867 1.981-2.795l7.263 5.275c2.13-2.936 4.36-5.8 6.69-8.591l-6.873-5.757a167.01 167.01 0 012.25-2.634c.757-.867 1.52-1.719 2.292-2.555l6.644 6.031c2.44-2.673 4.97-5.271 7.589-7.795l-6.215-6.478c.829-.802 1.669-1.594 2.52-2.377.842-.767 1.719-1.535 2.543-2.29l5.946 6.73a159.635 159.635 0 018.396-6.925l-5.475-7.12c.916-.702 1.84-1.395 2.772-2.079a136.62 136.62 0 012.778-2.005l5.154 7.337c2.967-2.084 6-4.07 9.101-5.956l-4.656-7.675c.985-.602 1.982-1.191 2.978-1.77a103.72 103.72 0 012.984-1.684l4.336 7.864a149.7 149.7 0 019.691-4.92l-3.786-8.144a173.543 173.543 0 016.306-2.773l3.437 8.294a156.992 156.992 0 0110.183-3.815l-2.863-8.51a151.357 151.357 0 016.57-2.056l2.502 8.59a155.947 155.947 0 0110.544-2.657l-1.895-8.78c1.145-.241 2.262-.476 3.396-.694 1.134-.217 2.262-.395 3.408-.59l1.53 8.844a159.606 159.606 0 0110.778-1.478l-.922-8.935a174.001 174.001 0 016.873-.561l.573 8.963c3.62-.225 7.247-.324 10.883-.297l.063-8.981c1.145 0 2.29.028 3.436.063 1.146.034 2.291.074 3.437.126l-.424 8.97c3.627.167 7.241.463 10.842.887l1.042-8.924c1.146.132 2.291.281 3.437.436 1.145.154 2.257.32 3.385.504l-1.409 8.866c3.585.565 7.146 1.256 10.682 2.073l2.016-8.751c1.123.263 2.245.534 3.368.813 1.122.279 2.226.57 3.31.876l-2.451 8.655c3.494.962 6.953 2.044 10.378 3.247l2.979-8.477c1.088.384 2.176.78 3.253 1.18 1.077.401 2.136.814 3.196 1.237l-3.322 8.34a159.03 159.03 0 019.96 4.376l3.912-8.094c1.042.505 2.079 1.016 3.11 1.535 1.031.52 2.043 1.047 3.036 1.581l-4.222 7.921a159.164 159.164 0 019.41 5.447l4.766-7.612a209.83 209.83 0 015.78 3.77l-5.07 7.41c2.99 2.051 5.91 4.2 8.758 6.45l5.567-7.045c.913.718 1.812 1.443 2.698 2.176s1.75 1.47 2.594 2.211l-5.848 6.81a167.972 167.972 0 018.019 7.372l6.3-6.398c.817.813 1.63 1.634 2.44 2.463.81.828 1.596 1.653 2.36 2.474l-6.57 6.123a158.782 158.782 0 017.148 8.202l6.965-5.665c.733.894 1.45 1.799 2.16 2.71.71.91 1.391 1.81 2.073 2.72l-7.188 5.372c2.172 2.91 4.24 5.888 6.203 8.935l7.549-4.862a193.56 193.56 0 011.85 2.926c.607.98 1.185 1.954 1.764 2.933l-7.738 4.553a151.615 151.615 0 015.155 9.565l8.018-4.009a193.98 193.98 0 011.512 3.116c.487 1.03.968 2.068 1.432 3.11l-8.196 3.671a158.959 158.959 0 014.1 10.075l8.426-3.093c.401 1.088.785 2.177 1.146 3.265.36 1.088.727 2.165 1.076 3.253l-8.55 2.738a154.09 154.09 0 012.955 10.464l8.723-2.136c.275 1.122.538 2.247.79 3.373.252 1.127.489 2.244.71 3.351l-8.734 1.776a153.56 153.56 0 011.775 10.727l8.907-1.145c.149 1.145.286 2.29.412 3.436s.24 2.291.338 3.437l-8.94.79c.312 3.616.503 7.244.572 10.883l8.975-.178c0 1.145.034 2.291.034 3.437s0 2.29-.034 3.436l-8.975-.178a173.063 173.063 0 01-.573 10.883z" fill="url(#p)"/></g></svg>